<svg width="30" height="13" viewBox="0 0 30 13" fill="none" xmlns="http://www.w3.org/2000/svg">
<path d="M7.40206 9.15643C7.36498 9.17188 7.20276 9.19351 6.91539 9.22132C6.63111 9.24604 6.22478 9.30784 5.69639 9.40672C5.168 9.50251 4.61799 9.64002 4.04634 9.81924C3.35727 10.0355 2.72691 10.3167 2.15527 10.6628C1.58671 11.012 1.10004 11.4059 0.695247 11.8447C0.488218 12.0734 0.352259 12.2093 0.287369 12.2526C0.225569 12.299 0.162224 12.3005 0.0973346 12.2572C0.0540748 12.2294 0.0308999 12.1985 0.0278099 12.1645C0.0278099 12.1305 0.0432598 12.0734 0.0741597 11.993C0.194669 11.6933 0.452683 11.0877 0.848201 10.1761C1.7134 8.1491 2.29432 6.74933 2.59095 5.97684C2.89068 5.20434 3.18732 4.32678 3.48087 3.34417C3.72189 2.53459 3.83467 2.11435 3.81922 2.08345C3.81304 2.068 3.78523 2.09736 3.73579 2.17152C3.7327 2.17461 3.72961 2.1777 3.72652 2.18079C3.66163 2.27349 3.59056 2.31211 3.51332 2.29666C3.43916 2.28121 3.40208 2.21941 3.40208 2.11126C3.40208 2.07109 3.43298 1.98766 3.49478 1.86097C3.55967 1.73119 3.63691 1.59678 3.72652 1.45773C3.94591 1.09311 4.1035 0.782569 4.19929 0.5261C4.30744 0.251091 4.40323 0.113586 4.48666 0.113586C4.57009 0.113586 4.62726 0.138306 4.65816 0.187746C4.70142 0.255726 4.55001 0.909258 4.20393 2.14834C3.86094 3.38434 3.53495 4.44575 3.22595 5.33257C2.98184 6.03091 2.66666 6.83276 2.28041 7.73813C1.35032 9.94747 0.885281 11.063 0.885281 11.0846C0.885281 11.0908 0.908456 11.0784 0.954806 11.0475C1.00116 11.0166 1.06605 10.9703 1.14948 10.9085C1.23599 10.8497 1.32406 10.7849 1.41367 10.7138C1.84318 10.3924 2.4689 10.0695 3.29084 9.74508C4.11586 9.42063 4.78793 9.20896 5.30705 9.11008C5.57897 9.05755 5.87098 9.0112 6.18306 8.97103C6.49515 8.92777 6.76398 8.89378 6.98955 8.86906C7.21821 8.84434 7.33872 8.83044 7.35108 8.82735C7.42833 8.8119 7.48395 8.82735 7.51794 8.8737C7.55193 8.91696 7.55656 8.96794 7.53184 9.02665C7.51021 9.08536 7.46695 9.12862 7.40206 9.15643ZM9.70565 6.93164C9.78908 6.92237 9.84779 6.95327 9.88178 7.02434C9.91577 7.09541 9.89414 7.1773 9.81689 7.27C9.75509 7.33798 9.68711 7.41059 9.61295 7.48784C9.53879 7.562 9.41365 7.67633 9.23752 7.83083C9.06139 7.98533 8.88526 8.12438 8.70913 8.24798C8.533 8.36849 8.32443 8.48591 8.08341 8.60024C7.84239 8.71457 7.60909 8.79336 7.38352 8.83662C7.05599 8.89842 6.76553 8.84898 6.51215 8.6883C6.25877 8.52453 6.11663 8.29587 6.08573 8.00232C6.05483 7.69332 6.07337 7.37042 6.14135 7.03361C6.20006 6.74933 6.27267 6.54385 6.35919 6.41716C6.44571 6.29047 6.53687 6.25803 6.63266 6.31983C6.67592 6.34455 6.69755 6.40326 6.69755 6.49595C6.69755 6.58556 6.67746 6.64273 6.63729 6.66745C6.59403 6.69526 6.54459 6.89611 6.48897 7.27C6.45189 7.50793 6.43335 7.67633 6.43335 7.77521C6.43644 7.871 6.46116 7.97451 6.50751 8.08575C6.59403 8.29587 6.76244 8.41329 7.01273 8.43801C7.2661 8.45964 7.5303 8.41484 7.80531 8.3036C8.08341 8.19236 8.33833 8.04713 8.57008 7.86791C8.71531 7.75358 8.87753 7.61607 9.05675 7.4554C9.23906 7.29163 9.3812 7.16494 9.48317 7.07533C9.58823 6.98572 9.66239 6.93782 9.70565 6.93164ZM6.88295 5.75436C6.84896 5.78835 6.8057 5.80534 6.75317 5.80534C6.70064 5.80534 6.65583 5.78835 6.61875 5.75436C6.58476 5.71728 6.56777 5.67247 6.56777 5.61994C6.56777 5.56741 6.58476 5.52415 6.61875 5.49016C6.65583 5.45308 6.70064 5.43454 6.75317 5.43454C6.8057 5.43454 6.84896 5.45308 6.88295 5.49016C6.92003 5.52415 6.93857 5.56741 6.93857 5.61994C6.93857 5.67247 6.92003 5.71728 6.88295 5.75436ZM13.6268 6.85285C13.6423 6.86521 13.6423 6.90074 13.6268 6.95945C13.6145 7.01507 13.5851 7.05988 13.5388 7.09387C13.5048 7.11859 13.3178 7.20356 12.9779 7.34879C12.638 7.49402 12.4248 7.58981 12.3383 7.63616C12.0973 7.76594 11.949 7.86327 11.8934 7.92816C11.8377 7.98996 11.7698 8.13674 11.6894 8.36849C11.3433 9.42217 10.9339 9.94902 10.4612 9.94902C10.2974 9.94902 10.1676 9.90112 10.0718 9.80533C9.98838 9.7219 9.94203 9.61221 9.93276 9.47625C9.92658 9.3372 9.96057 9.21823 10.0347 9.11935C10.1089 9.02047 10.1413 8.95713 10.1321 8.92932C10.1228 8.89842 10.0625 8.8876 9.9513 8.89687C9.79989 8.90614 9.69792 8.84125 9.6454 8.70221C9.59287 8.56007 9.57742 8.30514 9.59905 7.93743C9.62377 7.49557 9.67475 7.17575 9.752 6.97799C9.80144 6.84512 9.8277 6.74315 9.83079 6.67208C9.83697 6.59792 9.82461 6.52685 9.79371 6.45887C9.76281 6.38472 9.752 6.33219 9.76127 6.30129C9.77363 6.2673 9.81689 6.22404 9.89105 6.17151C10.0085 6.08808 10.1305 5.87796 10.2572 5.54115C10.6805 4.41948 11.1008 3.38279 11.5179 2.43108C11.6323 2.17152 11.7234 1.99075 11.7914 1.88878C11.8625 1.78681 11.9397 1.71729 12.0231 1.68021C12.1066 1.64622 12.1715 1.63232 12.2178 1.6385C12.2672 1.64159 12.3275 1.6663 12.3986 1.71265C12.689 1.89805 12.6968 2.33683 12.4217 3.02899C12.1467 3.71806 11.6014 4.6296 10.7856 5.76363C10.6002 6.0201 10.4287 6.31365 10.2711 6.64427C10.1135 6.97181 10.0564 7.15721 10.0996 7.20047C10.1027 7.20356 10.1182 7.1912 10.146 7.16339C10.1769 7.13249 10.214 7.08923 10.2572 7.03361C10.3036 6.97799 10.3515 6.91774 10.4009 6.85285C10.5461 6.652 10.7284 6.47278 10.9478 6.31519C11.1703 6.15451 11.3464 6.07263 11.4762 6.06954C11.6153 6.06645 11.728 6.11434 11.8146 6.21322C11.9011 6.30901 11.9567 6.43106 11.9814 6.57938C12.0061 6.7277 12.0154 6.87448 12.0092 7.01971C12.0061 7.16494 11.9892 7.29781 11.9583 7.41832C12.0077 7.38742 12.0788 7.34879 12.1715 7.30244C12.2672 7.25609 12.3507 7.21592 12.4217 7.18193L12.5237 7.13558C13.1695 6.81113 13.5372 6.71689 13.6268 6.85285ZM11.8887 2.45889C11.7837 2.69373 11.6091 3.11551 11.365 3.72424C11.124 4.32987 11.0034 4.64505 11.0034 4.66977C11.0034 4.73157 11.0467 4.70067 11.1332 4.57707L11.3464 4.25726C11.64 3.80612 11.8516 3.44305 11.9814 3.16804C12.1112 2.88994 12.1869 2.64738 12.2085 2.44035C12.2363 2.16534 12.2178 2.03556 12.1529 2.05101C12.0911 2.07264 12.0031 2.2086 11.8887 2.45889ZM10.818 9.3511C10.9169 9.22441 11.0235 9.04056 11.1379 8.79954C11.2522 8.55852 11.297 8.42565 11.2723 8.40093C11.2445 8.37312 11.1162 8.46582 10.8876 8.67903C10.662 8.89224 10.509 9.06373 10.4287 9.19351C10.3206 9.36655 10.3005 9.48861 10.3685 9.55968C10.4241 9.62457 10.5121 9.6153 10.6326 9.53187C10.6975 9.48861 10.7593 9.42835 10.818 9.3511ZM11.6292 7.0058C11.6384 6.8513 11.6384 6.73079 11.6292 6.64427C11.623 6.55775 11.5998 6.50059 11.5596 6.47278C11.5195 6.44497 11.4747 6.43724 11.4252 6.4496C11.3789 6.46196 11.3186 6.49132 11.2445 6.53767C11.022 6.67981 10.7964 6.91465 10.5678 7.24219C10.3422 7.56973 10.1985 7.86791 10.1367 8.13674C10.1151 8.24489 10.1104 8.32214 10.1228 8.36849C10.1352 8.41484 10.1738 8.46428 10.2387 8.51681C10.3159 8.57861 10.3762 8.60178 10.4194 8.58633C10.4627 8.57088 10.5647 8.49054 10.7253 8.34531C11.0529 8.05176 11.2491 7.87718 11.314 7.82156C11.4376 7.7165 11.5148 7.61916 11.5457 7.52956C11.5797 7.43686 11.6075 7.26227 11.6292 7.0058ZM15.8146 6.95482C15.966 6.93628 16.0571 6.93319 16.088 6.94555C16.1189 6.95482 16.1344 6.99653 16.1344 7.07069C16.1344 7.17266 16.0664 7.24991 15.9304 7.30244C15.7945 7.35188 15.623 7.3627 15.4159 7.33489C15.2584 7.31326 15.1209 7.25764 15.0034 7.16803C14.886 7.07533 14.7686 6.93473 14.6512 6.74624C14.611 6.68135 14.577 6.65354 14.5492 6.66281C14.5214 6.66899 14.4519 6.72616 14.3406 6.83431C14.2757 6.89611 14.183 7.0228 14.0625 7.21438C13.9451 7.40287 13.8339 7.60063 13.7288 7.80765C13.4723 8.32986 13.2869 8.58942 13.1726 8.58633C13.1324 8.58324 13.1 8.5508 13.0753 8.489C13.0537 8.42102 13.1154 8.08112 13.2607 7.4693C13.4121 6.86984 13.4723 6.50059 13.4414 6.36154C13.4167 6.2503 13.4353 6.15915 13.4971 6.08808C13.562 6.01392 13.6392 5.99229 13.7288 6.02319C13.7999 6.04791 13.8354 6.18696 13.8354 6.44033V6.81577L14.1552 6.50522C14.3561 6.31056 14.5137 6.21786 14.628 6.22713C14.7423 6.23331 14.8582 6.34455 14.9756 6.56084C15.0776 6.74315 15.1873 6.86212 15.3047 6.91774C15.4252 6.97336 15.5952 6.98572 15.8146 6.95482ZM19.9026 7.13558L19.9304 7.14485C19.952 7.14794 19.9675 7.15876 19.9768 7.1773C19.9891 7.19275 19.9922 7.21747 19.986 7.25146C19.9768 7.29163 19.9242 7.35806 19.8284 7.45076C19.7357 7.54346 19.5812 7.66551 19.3649 7.81692C19.1487 7.96524 18.9061 8.10893 18.6373 8.24798C18.3592 8.39321 18.1274 8.48282 17.942 8.51681C17.7597 8.54771 17.5913 8.52762 17.4368 8.45655C17.1803 8.33913 17.0521 8.13365 17.0521 7.8401V7.61762L16.5376 7.98378C16.312 8.14137 16.1514 8.2418 16.0556 8.28506C15.9629 8.32523 15.8563 8.34068 15.7358 8.33141C15.6492 8.32523 15.5797 8.30051 15.5272 8.25725C15.4747 8.21399 15.4422 8.15991 15.4299 8.09502C15.4175 8.03013 15.4144 7.9637 15.4206 7.89572C15.4299 7.82774 15.4453 7.75821 15.4669 7.68714C15.5287 7.48939 15.6508 7.29935 15.8331 7.11704C16.0185 6.93164 16.2116 6.80959 16.4125 6.75088C16.5392 6.7138 16.6411 6.6968 16.7184 6.69989C16.7956 6.70298 16.9022 6.72925 17.0382 6.77869L17.358 6.89456L17.7149 6.61646C18.0146 6.38163 18.1954 6.32137 18.2572 6.4357C18.2695 6.46042 18.2757 6.49132 18.2757 6.5284C18.2757 6.59329 18.1614 6.74006 17.9327 6.96872C17.735 7.15721 17.5913 7.35652 17.5017 7.56664C17.4121 7.77366 17.4059 7.92353 17.4831 8.01623C17.5944 8.15528 17.7952 8.17691 18.0857 8.08112C18.3792 7.98533 18.8103 7.75512 19.3789 7.39051C19.4746 7.32871 19.5627 7.27618 19.643 7.23292C19.7265 7.18966 19.7883 7.16185 19.8284 7.14949C19.8717 7.13404 19.8964 7.1294 19.9026 7.13558ZM16.9455 7.19584C16.9795 7.14022 16.9439 7.10314 16.8389 7.0846C16.6937 7.05679 16.5562 7.07687 16.4264 7.14485C16.2472 7.24064 16.0757 7.39823 15.9119 7.61762C15.7667 7.81229 15.7219 7.93125 15.7775 7.97451C15.7867 7.98069 15.8006 7.98378 15.8192 7.98378C15.8686 7.98378 16.0587 7.86327 16.3893 7.62225C16.5222 7.53265 16.6442 7.44458 16.7555 7.35806C16.8698 7.27154 16.9331 7.21747 16.9455 7.19584ZM22.2294 6.95482C22.3808 6.93628 22.4719 6.93319 22.5028 6.94555C22.5337 6.95482 22.5492 6.99653 22.5492 7.07069C22.5492 7.17266 22.4812 7.24991 22.3452 7.30244C22.2093 7.35188 22.0378 7.3627 21.8308 7.33489C21.6732 7.31326 21.5357 7.25764 21.4182 7.16803C21.3008 7.07533 21.1834 6.93473 21.066 6.74624C21.0258 6.68135 20.9918 6.65354 20.964 6.66281C20.9362 6.66899 20.8667 6.72616 20.7554 6.83431C20.6906 6.89611 20.5979 7.0228 20.4773 7.21438C20.3599 7.40287 20.2487 7.60063 20.1436 7.80765C19.8872 8.32986 19.7018 8.58942 19.5874 8.58633C19.5473 8.58324 19.5148 8.5508 19.4901 8.489C19.4685 8.42102 19.5303 8.08112 19.6755 7.4693C19.8269 6.86984 19.8872 6.50059 19.8563 6.36154C19.8315 6.2503 19.8501 6.15915 19.9119 6.08808C19.9768 6.01392 20.054 5.99229 20.1436 6.02319C20.2147 6.04791 20.2502 6.18696 20.2502 6.44033V6.81577L20.57 6.50522C20.7709 6.31056 20.9285 6.21786 21.0428 6.22713C21.1571 6.23331 21.273 6.34455 21.3904 6.56084C21.4924 6.74315 21.6021 6.86212 21.7195 6.91774C21.84 6.97336 22.01 6.98572 22.2294 6.95482ZM25.8354 6.93164C25.9188 6.92237 25.9775 6.95327 26.0115 7.02434C26.0455 7.09541 26.0239 7.1773 25.9466 7.27C25.8848 7.33798 25.8168 7.41059 25.7427 7.48784C25.6685 7.562 25.5434 7.67633 25.3672 7.83083C25.1911 7.98533 25.015 8.12438 24.8389 8.24798C24.6627 8.36849 24.4542 8.48591 24.2131 8.60024C23.9721 8.71457 23.7388 8.79336 23.5133 8.83662C23.1857 8.89842 22.8953 8.84898 22.6419 8.6883C22.3885 8.52453 22.2464 8.29587 22.2155 8.00232C22.1846 7.69332 22.2031 7.37042 22.2711 7.03361C22.3298 6.74933 22.4024 6.54385 22.4889 6.41716C22.5754 6.29047 22.6666 6.25803 22.7624 6.31983C22.8056 6.34455 22.8273 6.40326 22.8273 6.49595C22.8273 6.58556 22.8072 6.64273 22.767 6.66745C22.7238 6.69526 22.6743 6.89611 22.6187 7.27C22.5816 7.50793 22.5631 7.67633 22.5631 7.77521C22.5662 7.871 22.5909 7.97451 22.6372 8.08575C22.7238 8.29587 22.8922 8.41329 23.1425 8.43801C23.3958 8.45964 23.66 8.41484 23.935 8.3036C24.2131 8.19236 24.4681 8.04713 24.6998 7.86791C24.845 7.75358 25.0073 7.61607 25.1865 7.4554C25.3688 7.29163 25.5109 7.16494 25.6129 7.07533C25.718 6.98572 25.7921 6.93782 25.8354 6.93164ZM23.0127 5.75436C22.9787 5.78835 22.9354 5.80534 22.8829 5.80534C22.8304 5.80534 22.7856 5.78835 22.7485 5.75436C22.7145 5.71728 22.6975 5.67247 22.6975 5.61994C22.6975 5.56741 22.7145 5.52415 22.7485 5.49016C22.7856 5.45308 22.8304 5.43454 22.8829 5.43454C22.9354 5.43454 22.9787 5.45308 23.0127 5.49016C23.0498 5.52415 23.0683 5.56741 23.0683 5.61994C23.0683 5.67247 23.0498 5.71728 23.0127 5.75436ZM29.6361 7.13558L29.6639 7.14485C29.6855 7.14794 29.701 7.15876 29.7102 7.1773C29.7226 7.19275 29.7257 7.21747 29.7195 7.25146C29.7102 7.29163 29.6577 7.35806 29.5619 7.45076C29.4692 7.54346 29.3147 7.66551 29.0984 7.81692C28.8821 7.96524 28.6395 8.10893 28.3707 8.24798C28.0926 8.39321 27.8609 8.48282 27.6755 8.51681C27.4932 8.54771 27.3248 8.52762 27.1703 8.45655C26.9138 8.33913 26.7856 8.13365 26.7856 7.8401V7.61762L26.2711 7.98378C26.0455 8.14137 25.8848 8.2418 25.789 8.28506C25.6963 8.32523 25.5897 8.34068 25.4692 8.33141C25.3827 8.32523 25.3132 8.30051 25.2606 8.25725C25.2081 8.21399 25.1757 8.15991 25.1633 8.09502C25.151 8.03013 25.1479 7.9637 25.154 7.89572C25.1633 7.82774 25.1788 7.75821 25.2004 7.68714C25.2622 7.48939 25.3842 7.29935 25.5666 7.11704C25.752 6.93164 25.9451 6.80959 26.1459 6.75088C26.2726 6.7138 26.3746 6.6968 26.4518 6.69989C26.5291 6.70298 26.6357 6.72925 26.7716 6.77869L27.0915 6.89456L27.4484 6.61646C27.7481 6.38163 27.9288 6.32137 27.9906 6.4357C28.003 6.46042 28.0092 6.49132 28.0092 6.5284C28.0092 6.59329 27.8949 6.74006 27.6662 6.96872C27.4684 7.15721 27.3248 7.35652 27.2351 7.56664C27.1455 7.77366 27.1394 7.92353 27.2166 8.01623C27.3278 8.15528 27.5287 8.17691 27.8192 8.08112C28.1127 7.98533 28.5438 7.75512 29.1123 7.39051C29.2081 7.32871 29.2962 7.27618 29.3765 7.23292C29.4599 7.18966 29.5217 7.16185 29.5619 7.14949C29.6052 7.13404 29.6299 7.1294 29.6361 7.13558ZM26.6789 7.19584C26.7129 7.14022 26.6774 7.10314 26.5723 7.0846C26.4271 7.05679 26.2896 7.07687 26.1598 7.14485C25.9806 7.24064 25.8091 7.39823 25.6453 7.61762C25.5001 7.81229 25.4553 7.93125 25.5109 7.97451C25.5202 7.98069 25.5341 7.98378 25.5526 7.98378C25.6021 7.98378 25.7921 7.86327 26.1228 7.62225C26.2556 7.53265 26.3777 7.44458 26.4889 7.35806C26.6032 7.27154 26.6666 7.21747 26.6789 7.19584Z" fill="white"/>
</svg>
