<svg width="8" height="123" viewBox="0 0 8 123" fill="none" xmlns="http://www.w3.org/2000/svg">
<g clip-path="url(#clip0_358_90)">
<path d="M5.60128 4.49584L5.60128 2.11324L4.54762 2.11324L4.54762 4.24904L2.94339 4.24904L2.94339 2.11324L0.617753 2.11324L0.617753 0.262207L7.26246 0.262207L7.26246 4.49584L5.60128 4.49584ZM0.446882 8.29141C0.446882 6.60175 1.548 5.39621 3.1807 5.39621L7.26246 5.39621L7.26246 7.26622L3.21867 7.26622C2.5637 7.26622 2.14603 7.68389 2.14603 8.29141C2.14603 8.90841 2.5637 9.32608 3.21867 9.32608L7.26246 9.32608L7.26246 11.1961L3.1807 11.1961C1.548 11.1961 0.446882 9.99055 0.446882 8.29141ZM7.26246 16.5728L7.26246 18.3479L0.617752 18.3479L0.617752 16.8291L4.21538 14.1902L0.617752 14.1902L0.617752 12.4151L7.26246 12.4151L7.26246 14.0193L3.76924 16.5728L7.26246 16.5728ZM7.26246 22.3135C7.26246 24.3259 5.88605 25.7498 3.9401 25.7498C2.00364 25.7498 0.617752 24.3259 0.617752 22.3135L0.617752 19.6271L7.26246 19.6271L7.26246 22.3135ZM2.28842 22.2281C2.28842 23.2153 2.96238 23.8703 3.9401 23.8703C4.92731 23.8703 5.58229 23.2153 5.58229 22.2281L5.58229 21.4687L2.28842 21.4687L2.28842 22.2281ZM0.617752 30.7802L1.69039 30.4194L1.69039 28.0653L0.617752 27.6951L0.617752 25.7302L7.26246 28.3406L7.26246 30.1347L0.617752 32.802L0.617752 30.7802ZM3.12375 29.9733L5.18361 29.2329L3.12375 28.5115L3.12375 29.9733ZM0.617751 41.8592L0.617751 40.0081L4.4432 39.4956L0.598761 37.73L0.598761 37.1889L4.43371 35.4328L0.617752 34.9202L0.617752 33.0597L7.26246 34.0659L7.26246 35.8979L3.64583 37.4642L7.26246 39.0399L7.26246 40.8625L0.617751 41.8592ZM2.20298 44.5875L2.20298 47.103L0.617751 47.103L0.617751 42.765L7.26246 42.765L7.26246 47.0176L5.67722 47.0176L5.67722 44.5875L4.6995 44.5875L4.6995 46.7708L3.19969 46.7708L3.19969 44.5875L2.20298 44.5875ZM7.26245 52.3085L7.26245 54.0836L0.617751 54.0836L0.617751 52.5648L4.21538 49.9259L0.617751 49.9259L0.617751 48.1508L7.26246 48.1508L7.26245 49.755L3.76924 52.3085L7.26245 52.3085ZM7.26245 60.3464L5.61077 60.3464L5.61077 58.5428L0.61775 58.5428L0.617751 56.7013L5.61077 56.7013L5.61077 54.8977L7.26245 54.8977L7.26245 60.3464ZM0.61775 64.8936L1.69039 64.5329L1.69039 62.1788L0.61775 61.8086L0.61775 59.8436L7.26245 62.4541L7.26245 64.2481L0.61775 66.9155L0.61775 64.8936ZM3.12375 64.0868L5.18361 63.3463L3.12375 62.6249L3.12375 64.0868ZM2.28842 69.4133L2.28842 71.777L0.61775 71.777L0.61775 67.5528L7.26245 67.5528L7.26245 69.4133L2.28842 69.4133ZM0.446879 74.8664C0.44688 73.2432 1.31069 72.1895 2.76304 72.1895L2.76304 74.0785C2.28842 74.0785 2.0511 74.4487 2.0511 74.8664C2.0511 75.2461 2.25994 75.6163 2.62065 75.6163C3.03832 75.6163 3.16172 75.0942 3.3136 74.4582C3.55091 73.4995 3.84518 72.2749 5.35447 72.2749C6.66443 72.2749 7.41433 73.2337 7.41433 74.7999C7.41433 76.3947 6.59798 77.3154 5.24056 77.3154L5.24056 75.4739C5.66772 75.4739 5.86707 75.1606 5.86707 74.781C5.86707 74.4582 5.72468 74.145 5.41143 74.145C5.03173 74.145 4.90833 74.6481 4.74696 75.2651C4.50015 76.2523 4.16792 77.5243 2.65862 77.5243C1.20628 77.5243 0.446879 76.4137 0.446879 74.8664ZM0.446879 83.8529C0.446879 81.7171 1.90872 80.1983 3.93061 80.1983C5.96199 80.1983 7.42382 81.7171 7.42382 83.8529C7.42382 85.9887 5.97148 87.5075 3.93061 87.5075C1.89923 87.5075 0.446879 85.9887 0.446879 83.8529ZM2.14603 83.8529C2.14603 84.8686 2.89593 85.5995 3.93061 85.5995C4.97478 85.5995 5.72468 84.8686 5.72468 83.8529C5.72468 82.8467 4.96528 82.0968 3.93061 82.0968C2.90542 82.0968 2.14603 82.8467 2.14603 83.8529ZM5.60128 92.6717L5.60128 90.2891L4.54762 90.2891L4.54762 92.4249L2.94339 92.4249L2.94339 90.2891L0.617749 90.2891L0.617749 88.4381L7.26245 88.4381L7.26245 92.6717L5.60128 92.6717ZM7.26245 99.3277L7.26245 101.169L0.617749 101.169L0.617749 99.3277L3.16172 99.3277L3.16172 97.3342L0.617749 97.3342L0.617749 95.4832L7.26245 95.4832L7.26245 97.3342L4.86087 97.3342L4.86087 99.3277L7.26245 99.3277ZM7.26245 107.438L5.61077 107.438L5.61077 105.634L0.617748 105.634L0.617749 103.793L5.61077 103.793L5.61077 101.989L7.26245 101.989L7.26245 107.438ZM0.617748 116.417L0.617748 114.566L4.4432 114.054L0.598758 112.288L0.598758 111.747L4.43371 109.991L0.617748 109.478L0.617748 107.618L7.26245 108.624L7.26245 110.456L3.64583 112.022L7.26245 113.598L7.26245 115.421L0.617748 116.417ZM2.28842 119.184L2.28842 121.547L0.617748 121.547L0.617748 117.323L7.26245 117.323L7.26245 119.184L2.28842 119.184Z" fill="white"/>
</g>
<defs>
<clipPath id="clip0_358_90">
<rect width="122" height="8" fill="white" transform="translate(8 0.258789) rotate(90)"/>
</clipPath>
</defs>
</svg>
