<svg width="8" height="34" viewBox="0 0 8 34" fill="none" xmlns="http://www.w3.org/2000/svg">
<g clip-path="url(#clip0_358_98)">
<path d="M6.85757 0.414062L7.02844 2.11321L2.54801 3.71743L6.93351 5.25521L6.93351 6.97334L0.478649 4.55277L0.478649 2.82514L6.85757 0.414062ZM3.00364 10.9406L0.478649 10.9406L0.478649 9.21296L3.02263 9.21296L6.61077 7.16259L7.06641 8.81428L4.60787 10.0673L6.93351 11.4057L6.93351 13.1808L3.00364 10.9406ZM6.93351 19.7524L0.478648 19.7524L0.478648 18.0248L3.00364 18.0248L3.00364 15.7656L0.478648 15.7656L0.478649 14.0379L6.93351 14.0379L6.99047 15.7656L4.36106 15.7656L4.36106 18.0248L6.93351 18.0248L6.93351 19.7524ZM1.83607 25.8344L0.478648 25.9958L0.478648 21.2685L6.93351 21.2685L6.93351 25.8344L5.57609 25.9958L5.57609 22.9961L4.39903 22.9961L4.39903 24.9801L3.04161 25.1414L3.04161 22.9961L1.83607 22.9961L1.83607 25.8344ZM0.478648 26.9417L6.93351 26.9417L6.93351 29.6566C6.93351 30.4286 6.74999 31.0646 6.38295 31.5646C6.01591 32.0645 5.46535 32.3145 4.73127 32.3145C4.35157 32.3145 4.01617 32.2354 3.72507 32.0771C3.4403 31.9253 3.20615 31.7133 3.02263 31.4412L0.478648 32.865L0.478648 30.8621L2.51004 29.8179L2.51004 28.6694L0.478648 28.6694L0.478648 26.9417ZM4.73127 30.5299C5.00971 30.5299 5.21855 30.4476 5.35777 30.2831C5.50332 30.1249 5.57609 29.897 5.57609 29.5996L5.57609 28.6694L3.86746 28.6694L3.86746 29.6186C3.86746 29.8844 3.94656 30.1027 4.10477 30.2736C4.2693 30.4444 4.47814 30.5299 4.73127 30.5299Z" fill="white"/>
</g>
<defs>
<clipPath id="clip0_358_98">
<rect width="33" height="8" fill="white" transform="translate(8 0.258789) rotate(90)"/>
</clipPath>
</defs>
</svg>
