<svg width="7" height="93" viewBox="0 0 7 93" fill="none" xmlns="http://www.w3.org/2000/svg">
<g clip-path="url(#clip0_358_86)">
<path d="M0.0810722 4.09085C0.0810723 2.29678 1.37205 0.986816 3.35597 0.986816C5.33989 0.986816 6.63086 2.29678 6.63086 4.09085C6.63086 5.61913 5.73857 6.84366 4.35267 6.84366L4.24825 6.84366L4.24825 6.39751L4.35267 6.39751C5.52024 6.39751 6.22268 5.55268 6.22268 4.09085C6.22268 2.43916 5.18801 1.42347 3.35597 1.42347C1.52392 1.42347 0.498742 2.43916 0.498742 4.09085C0.498742 5.55268 1.19169 6.39751 2.36875 6.39751L2.46368 6.39751L2.46368 6.84366L2.36875 6.84366C0.973362 6.84366 0.0810721 5.62862 0.0810722 4.09085ZM0.0810719 10.1787C0.081072 8.31817 1.02083 7.52081 2.15043 7.52081L2.20738 7.52081L2.20738 7.94797L2.09347 7.94797C1.06829 7.94797 0.489252 8.62193 0.489252 10.1787C0.489252 11.4981 0.897422 12.1816 1.73276 12.1816C2.53962 12.1816 2.83388 11.688 3.0617 10.6628L3.3085 9.45727C3.51734 8.46056 3.90653 7.58726 4.96968 7.58726C5.80502 7.58726 6.63086 8.30868 6.63086 10.0268C6.63086 11.7639 5.67212 12.5233 4.56151 12.5233L4.50455 12.5233L4.50455 12.0961L4.61846 12.0961C5.64364 12.0961 6.21319 11.4412 6.21319 10.0173C6.21319 8.66939 5.80502 8.01441 5.01714 8.01441C4.18181 8.01441 3.92551 8.49853 3.6882 9.57118L3.4414 10.7672C3.22307 11.8114 2.8054 12.6087 1.78022 12.6087C0.906922 12.6087 0.0810719 11.8493 0.0810719 10.1787ZM0.0810717 15.9075C0.0810718 14.047 1.02083 13.2496 2.15043 13.2496L2.20738 13.2496L2.20738 13.6768L2.09347 13.6768C1.06829 13.6768 0.489252 14.3507 0.489251 15.9075C0.489251 17.227 0.897422 17.9104 1.73276 17.9104C2.53962 17.9104 2.83388 17.4168 3.0617 16.3916L3.3085 15.1861C3.51734 14.1894 3.90653 13.3161 4.96968 13.3161C5.80502 13.3161 6.63086 14.0375 6.63086 15.7556C6.63086 17.4927 5.67212 18.2521 4.56151 18.2521L4.50455 18.2521L4.50455 17.825L4.61846 17.825C5.64364 17.825 6.21319 17.17 6.21319 15.7461C6.21319 14.3982 5.80502 13.7432 5.01714 13.7432C4.18181 13.7432 3.92551 14.2273 3.6882 15.3L3.4414 16.496C3.22307 17.5402 2.8054 18.3376 1.78022 18.3376C0.906922 18.3376 0.0810716 17.5782 0.0810717 15.9075ZM0.176002 21.5824L0.176002 21.1552L6.53593 21.1552L6.53593 25.7211L6.14674 25.7211L6.14674 21.5824L3.37495 21.5824L3.37495 25.5787L2.99525 25.5787L2.99525 21.5824L0.176002 21.5824ZM0.0810711 29.5841C0.0810712 27.7711 1.37205 26.4421 3.35597 26.4421C5.33989 26.4421 6.63086 27.7711 6.63086 29.5841C6.63086 31.4067 5.33989 32.7261 3.35597 32.7261C1.37205 32.7261 0.081071 31.4067 0.0810711 29.5841ZM0.498741 29.5841C0.498741 31.2643 1.52392 32.2895 3.35597 32.2895C5.18801 32.2895 6.22268 31.2643 6.22268 29.5841C6.22268 27.9039 5.18801 26.8788 3.35597 26.8788C1.52392 26.8788 0.498741 27.9039 0.498741 29.5841ZM0.176001 34.1524L0.176001 33.7253L6.53593 33.7253L6.53593 36.7059C6.53593 37.9589 5.87146 38.8607 4.72288 38.8607C3.63125 38.8607 2.94779 38.0158 2.94779 36.8388L2.90982 36.8388C2.8054 37.1995 2.54911 37.4463 2.20738 37.6646L0.176001 38.9461L0.176001 38.4715L2.08398 37.247C2.62505 36.9147 2.87185 36.5445 2.87185 35.6617L2.87185 34.1524L0.176001 34.1524ZM6.14674 34.1524L3.24206 34.1524L3.24206 36.7059C3.24206 37.8165 3.70719 38.424 4.6944 38.424C5.68161 38.424 6.14674 37.8165 6.14674 36.7059L6.14674 34.1524ZM0.176001 44.8399L0.176001 41.5935L6.53593 41.5935L6.53593 44.7734C6.53593 45.8556 5.95689 46.6245 4.9507 46.6245C4.23876 46.6245 3.69769 46.2163 3.53632 45.4094L3.49835 45.4094C3.3085 46.3207 2.72946 46.8048 1.92261 46.8048C0.82148 46.8048 0.176001 45.9885 0.176001 44.8399ZM6.14674 42.0111L3.67871 42.0111L3.67871 44.669C3.67871 45.6562 4.08688 46.2068 4.91273 46.2068C5.74806 46.2068 6.14674 45.7322 6.14674 44.7544L6.14674 42.0111ZM3.29901 42.0111L0.56519 42.0111L0.56519 44.8209C0.56519 45.8366 1.00184 46.3776 1.95108 46.3776C2.87185 46.3776 3.29901 45.8081 3.29901 44.8209L3.29901 42.0111ZM0.176 52.3464L0.176 47.6951L6.53593 47.6951L6.53593 52.3464L6.14674 52.3464L6.14674 48.1223L3.5648 48.1223L3.5648 52.204L3.1851 52.204L3.1851 48.1223L0.56519 48.1223L0.56519 52.3464L0.176 52.3464ZM0.0810699 56.1779C0.08107 54.4123 1.37205 53.1118 3.35597 53.1118C5.33989 53.1118 6.63086 54.4312 6.63086 56.2253C6.63086 57.7631 5.73857 58.9876 4.36216 58.9876L4.27673 58.9876L4.27673 58.5415L4.36216 58.5415C5.52024 58.5415 6.22268 57.6966 6.22268 56.2253C6.22268 54.5641 5.18801 53.5484 3.35597 53.5484C1.52392 53.5484 0.49874 54.5641 0.49874 56.2158C0.49874 57.7156 1.1727 58.5699 2.52063 58.5699L2.87185 58.5699L2.87185 55.9121L3.23256 55.9121L3.23256 58.9876L0.176 58.9876L0.176 58.6269L1.57139 58.6269L1.57139 58.5889C0.47976 58.2377 0.0810699 57.2315 0.0810699 56.1779ZM0.176 60.544L0.176 60.1168L6.53593 60.1168L6.53593 60.544L0.176 60.544ZM0.176 62.2219L0.176 61.7947L6.53593 61.7947L6.53593 62.2693L1.77073 65.9619L0.802499 66.7023L0.802499 66.7403L1.76124 66.7308L6.53593 66.7308L6.53593 67.1484L0.176 67.1484L0.176 66.6833L4.87476 63.0382L5.89994 62.2503L5.89994 62.2124L4.87476 62.2219L0.176 62.2219ZM0.176 68.8406L0.176 68.4135L6.53593 68.4135L6.53593 68.8881L1.77073 72.5806L0.802499 73.321L0.802499 73.359L1.76124 73.3495L6.53593 73.3495L6.53593 73.7672L0.175999 73.7672L0.175999 73.3021L4.87476 69.657L5.89994 68.8691L5.89994 68.8311L4.87476 68.8406L0.176 68.8406ZM0.175999 79.6835L0.175999 75.0322L6.53593 75.0322L6.53593 79.6835L6.14674 79.6835L6.14674 75.4594L3.5648 75.4594L3.5648 79.5411L3.1851 79.5411L3.1851 75.4594L0.565189 75.4594L0.565189 79.6835L0.175999 79.6835ZM0.175999 81.1419L0.175999 80.7147L6.53593 80.7147L6.53593 83.6953C6.53593 84.9483 5.87146 85.8501 4.72288 85.8501C3.63125 85.8501 2.94779 85.0053 2.94779 83.8282L2.90982 83.8282C2.8054 84.1889 2.54911 84.4357 2.20738 84.6541L0.175999 85.9355L0.175999 85.4609L2.08398 84.2364C2.62505 83.9042 2.87185 83.5339 2.87185 82.6512L2.87185 81.1419L0.175999 81.1419ZM6.14674 81.1419L3.24206 81.1419L3.24206 83.6953C3.24206 84.8059 3.70719 85.4135 4.6944 85.4135C5.68161 85.4135 6.14674 84.8059 6.14674 83.6953L6.14674 81.1419ZM0.0810685 89.1495C0.0810686 87.289 1.02083 86.4916 2.15043 86.4916L2.20738 86.4916L2.20738 86.9188L2.09347 86.9188C1.06829 86.9188 0.489248 87.5927 0.489248 89.1495C0.489248 90.4689 0.897418 91.1524 1.73276 91.1524C2.53962 91.1524 2.83388 90.6588 3.0617 89.6336L3.3085 88.428C3.51734 87.4313 3.90653 86.558 4.96968 86.558C5.80502 86.558 6.63086 87.2795 6.63086 88.9976C6.63086 90.7347 5.67212 91.4941 4.56151 91.4941L4.50455 91.4941L4.50455 91.0669L4.61846 91.0669C5.64364 91.0669 6.21319 90.412 6.21319 88.9881C6.21319 87.6402 5.80502 86.9852 5.01714 86.9852C4.18181 86.9852 3.92551 87.4693 3.6882 88.542L3.4414 89.738C3.22307 90.7822 2.8054 91.5795 1.78022 91.5795C0.906918 91.5795 0.0810684 90.8201 0.0810685 89.1495Z" fill="white"/>
</g>
<defs>
<clipPath id="clip0_358_86">
<rect width="92" height="7" fill="white" transform="translate(7 0.258789) rotate(90)"/>
</clipPath>
</defs>
</svg>
