<svg width="7" height="137" viewBox="0 0 7 137" fill="none" xmlns="http://www.w3.org/2000/svg">
<g clip-path="url(#clip0_358_96)">
<path d="M0.179553 1.73615L0.179554 0.881836L6.6534 0.881836L6.6534 1.86905L1.10031 8.93142L6.6534 8.93142L6.6534 9.78574L0.179553 9.78574L0.179553 8.78904L5.7611 1.73615L0.179553 1.73615ZM0.179553 19.5323L0.179553 11.2549L6.6534 11.2549L6.65339 19.5323L5.96044 19.5323L5.96044 12.1092L3.79617 12.1092L3.79617 19.352L3.18865 19.352L3.18865 12.1092L0.881993 12.1092L0.881993 19.5323L0.179553 19.5323ZM3.53038 28.7929L6.65339 28.7929L6.65339 29.6473L3.38799 29.6473C1.14778 29.6473 0.0846226 27.9861 0.0846227 25.2333C0.0846229 22.471 1.14778 20.8193 3.38799 20.8193L6.65339 20.8193L6.65339 21.6736L3.53038 21.6736C1.69834 21.6736 0.825033 22.8127 0.825033 25.2333C0.825032 27.6538 1.69834 28.7929 3.53038 28.7929ZM0.179552 31.8821L0.179552 31.0277L6.65339 31.0277L6.65339 37.1409C6.65339 38.7261 6.03639 39.5425 4.59353 39.5425C3.24561 39.5425 2.58114 38.8115 2.54317 37.2927L2.54317 36.4479L2.09702 37.0554L0.179552 39.3716L0.179552 38.2705L2.5052 35.4797L2.5052 31.8821L0.179552 31.8821ZM5.91298 31.8821L3.17916 31.8821L3.17916 37.1029C3.17916 38.2135 3.57784 38.6692 4.54607 38.6692C5.52379 38.6692 5.91298 38.2135 5.91298 37.1029L5.91298 31.8821ZM0.0751318 45.5372C0.075132 42.1199 1.08133 40.5157 3.41647 40.5157C5.75161 40.5157 6.75781 42.1199 6.75781 45.5372C6.75781 48.9545 5.75161 50.5587 3.41647 50.5587C1.08133 50.5587 0.0751317 48.9545 0.0751318 45.5372ZM0.825032 45.5372C0.825032 48.6223 1.65088 49.6949 3.41647 49.6949C5.18206 49.6949 6.00791 48.6223 6.00791 45.5372C6.00791 42.4522 5.18206 41.37 3.41647 41.37C1.65088 41.37 0.825032 42.4522 0.825032 45.5372ZM0.179551 52.7024L0.179551 51.8481L6.65339 51.8481L6.65339 52.8922L0.900971 57.6574L6.65339 62.4132L6.65339 63.4478L0.179551 63.4478L0.179551 62.5935L5.6377 62.5935L0.179551 58.0751L0.179551 57.2208L5.6377 52.7024L0.179551 52.7024ZM0.17955 73.5376L1.7458 72.427L1.7458 66.3518L0.179551 65.2412L0.179551 64.216L6.65339 68.8294L6.65339 69.9495L0.17955 74.5723L0.17955 73.5376ZM2.38179 66.798L2.38179 71.9809L6.05537 69.3894L2.38179 66.798ZM0.17955 76.1832L0.17955 75.3289L6.65339 75.3289L6.65339 81.442C6.65339 83.0273 6.03638 83.8436 4.59353 83.8436C3.24561 83.8436 2.58114 83.1127 2.54317 81.5939L2.54317 80.7491L2.09702 81.3566L0.17955 83.6727L0.17955 82.5716L2.5052 79.7808L2.5052 76.1832L0.17955 76.1832ZM5.91298 76.1832L3.17916 76.1832L3.17916 81.404C3.17916 82.5147 3.57784 82.9703 4.54607 82.9703C5.52379 82.9703 5.91298 82.5147 5.91298 81.404L5.91298 76.1832ZM0.17955 86.0835L0.17955 85.2292L6.65339 85.2292L6.65339 86.0835L2.85642 86.0835L4.06196 87.925L6.65339 92.2061L6.65339 93.4497L4.02399 89.2825L0.179549 93.5731L0.17955 92.4245L3.60632 88.5705L2.07804 86.0835L0.17955 86.0835ZM0.179549 103.231L0.179549 94.9534L6.65339 94.9534L6.65339 103.231L5.96044 103.231L5.96044 95.8077L3.79617 95.8077L3.79617 103.051L3.18865 103.051L3.18865 95.8077L0.88199 95.8077L0.881989 103.231L0.179549 103.231ZM5.91298 108.182L5.91298 104.252L6.65339 104.252L6.65339 112.966L5.91298 112.966L5.91298 109.037L0.179549 109.037L0.179549 108.182L5.91298 108.182ZM0.179549 114.941L0.179549 114.087L6.65339 114.087L6.65339 114.941L0.179549 114.941ZM0.179548 117.268L0.179548 116.414L6.65339 116.414L6.65339 117.401L1.10031 124.463L6.65339 124.463L6.65339 125.318L0.179548 125.318L0.179548 124.321L5.7611 117.268L0.179548 117.268ZM3.41647 126.597C5.69466 126.597 6.74831 128.021 6.74831 131.239C6.74831 132.729 6.48253 134.4 6.17877 135.615L5.44785 135.444C5.69466 134.352 5.99841 132.748 5.99841 131.182C5.99841 128.382 5.15359 127.451 3.41647 127.451C1.67935 127.451 0.834528 128.382 0.834528 131.182C0.834528 132.454 1.06234 133.783 1.25219 134.732L3.52089 134.732L3.52089 135.615L0.644678 135.615C0.340918 134.4 0.075128 132.729 0.0751281 131.239C0.0751282 128.021 1.12879 126.597 3.41647 126.597Z" fill="white"/>
</g>
<defs>
<clipPath id="clip0_358_96">
<rect width="136" height="7" fill="white" transform="translate(7 0.258789) rotate(90)"/>
</clipPath>
</defs>
</svg>
