<svg width="8" height="10" viewBox="0 0 8 10" fill="none" xmlns="http://www.w3.org/2000/svg">
<g clip-path="url(#clip0_358_88)">
<path d="M7.11328 0.727539L7.11328 2.01852C7.11328 2.29696 7.03734 2.52162 6.88546 2.69248C6.73991 2.86967 6.47096 2.95827 6.0786 2.95827L1.51274 2.95826C1.12671 2.95826 0.857761 2.86966 0.705881 2.69247C0.554001 2.52161 0.478061 2.29695 0.478061 2.01851L0.478061 0.727539L7.11328 0.727539ZM7.05633 1.51542L0.535021 1.51541L0.535021 1.83815C0.535021 1.9394 0.598301 2.01851 0.724871 2.07546C0.851431 2.13874 1.02546 2.17039 1.24695 2.17039L6.05962 2.1704C6.19884 2.1704 6.32857 2.16723 6.44881 2.1609C6.56905 2.1609 6.67346 2.15141 6.76206 2.13243C6.85698 2.11344 6.92976 2.0818 6.98039 2.0375C7.03101 1.9932 7.05633 1.92992 7.05633 1.84765L7.05633 1.51542ZM7.11328 4.86439C7.11328 5.14284 7.03734 5.36748 6.88546 5.53835C6.73991 5.71554 6.47096 5.80414 6.0786 5.80414L4.79712 5.80414C4.48704 5.80414 4.24973 5.73452 4.08519 5.5953C3.92698 5.46241 3.83206 5.28838 3.80042 5.07322L3.78143 5.07322C3.74979 5.28838 3.65487 5.46241 3.49666 5.5953C3.33845 5.73452 3.10431 5.80414 2.79422 5.80414L0.478061 5.80414L0.478061 5.01626L2.77523 5.01626C2.90813 5.01626 3.03469 5.0131 3.15493 5.00677C3.27517 5.00044 3.37959 4.98779 3.46818 4.9688C3.56311 4.94982 3.63588 4.92135 3.68651 4.88338C3.74346 4.85174 3.77194 4.80743 3.77194 4.75047L3.77194 4.36129L0.478061 4.36128L0.478061 3.57341L7.11328 3.57342L7.11328 4.86439ZM3.8289 4.36129L3.8289 4.75047C3.8289 4.85806 3.89534 4.92767 4.02824 4.95931C4.16746 4.99728 4.33516 5.01626 4.53134 5.01626L6.05962 5.01626C6.19884 5.01626 6.32857 5.0131 6.44881 5.00677C6.56905 5.00677 6.67346 4.99728 6.76206 4.97829C6.85698 4.95931 6.92976 4.92768 6.98039 4.88338C7.03101 4.83908 7.05633 4.77579 7.05633 4.69352L7.05633 4.36129L3.8289 4.36129ZM0.478061 7.20716L0.478061 6.41929L7.11328 6.41929L7.11328 7.20716L0.478061 7.20716ZM7.11328 8.32728L7.11328 8.38424L4.92053 7.71027L0.478061 8.90631L0.478061 8.10894L3.66752 7.26412L3.76245 7.26412L7.11328 8.32728Z" fill="white"/>
</g>
<defs>
<clipPath id="clip0_358_88">
<rect width="9" height="8" fill="white" transform="translate(8 0.258789) rotate(90)"/>
</clipPath>
</defs>
</svg>
