<svg width="7" height="57" viewBox="0 0 7 57" fill="none" xmlns="http://www.w3.org/2000/svg">
<g clip-path="url(#clip0_358_84)">
<path d="M1.40017 2.69076L2.82404 2.69076L2.82404 9.18359L1.40017 9.18359L1.40017 2.69076ZM0.479399 0.564453L6.55457 4.63671L6.55456 7.27561L0.479399 11.3858L0.479399 8.77541L5.91857 5.25372L5.91857 6.66809L0.479399 3.17487L0.479399 0.564453ZM2.71013 11.5271L2.71013 14.1186C2.57723 14.1629 2.46332 14.2926 2.3684 14.5077C2.2798 14.7229 2.21019 15.0108 2.15957 15.3716C2.11527 15.7386 2.09312 16.1626 2.09312 16.6435C2.09312 17.1182 2.10578 17.4915 2.13109 17.7637C2.16273 18.0421 2.21336 18.2383 2.28297 18.3522C2.35891 18.4661 2.46016 18.523 2.58673 18.523C2.70696 18.523 2.79872 18.4313 2.86201 18.2478C2.93162 18.0642 2.97908 17.7383 3.00439 17.27C3.02971 16.8018 3.04236 16.1436 3.04236 15.2956C3.04236 14.6628 3.07084 14.1154 3.12779 13.6534C3.19108 13.1978 3.286 12.8213 3.41257 12.5238C3.54546 12.2327 3.71 12.0176 3.90618 11.8783C4.10868 11.7391 4.34916 11.6695 4.6276 11.6695C5.10855 11.6695 5.50407 11.8309 5.81416 12.1536C6.13057 12.4827 6.36472 12.9763 6.51659 13.6344C6.6748 14.2989 6.75391 15.1279 6.75391 16.1215C6.75391 17.577 6.54191 18.6876 6.11791 19.4533C5.70025 20.2254 5.09589 20.6114 4.30486 20.6114L4.30486 18.1528C4.51369 18.1212 4.6719 17.925 4.77948 17.5643C4.89339 17.2036 4.95034 16.691 4.95034 16.0265C4.95034 15.3684 4.91237 14.8779 4.83643 14.5552C4.76049 14.2388 4.63076 14.0806 4.44724 14.0806C4.35232 14.0806 4.27638 14.1249 4.21943 14.2135C4.16247 14.3021 4.11501 14.454 4.07704 14.6691C4.0454 14.8906 4.02325 15.2007 4.01059 15.5994C3.99794 15.9981 3.99161 16.5043 3.99161 17.1182C3.99161 17.7953 3.9568 18.3712 3.88719 18.8458C3.82391 19.3204 3.72582 19.7033 3.59292 19.9944C3.46003 20.2918 3.28917 20.507 3.08033 20.6399C2.87783 20.7728 2.63735 20.8392 2.35891 20.8392C1.87796 20.8392 1.4856 20.6873 1.18184 20.3836C0.878088 20.0798 0.653428 19.5989 0.507878 18.9407C0.362328 18.2826 0.289558 17.4219 0.289558 16.3588C0.289558 15.7576 0.324358 15.2039 0.393968 14.6976C0.463578 14.1977 0.564839 13.7515 0.697729 13.3592C0.836949 12.9668 1.00465 12.6346 1.20083 12.3625C1.40333 12.0903 1.62799 11.8815 1.87479 11.736C2.12792 11.5967 2.40637 11.5271 2.71013 11.5271ZM6.55456 21.5005L6.55456 31.3726L4.751 31.3726L4.751 21.5005L6.55456 21.5005ZM4.8744 25.25L4.8744 27.6231L0.479398 27.6231L0.479398 25.25L4.8744 25.25ZM0.479398 32.3182L6.55456 32.3182L6.55456 39.6558C6.55456 40.2317 6.48812 40.7474 6.35522 41.2031C6.22866 41.665 6.01349 42.0289 5.70974 42.2947C5.40598 42.5668 4.99148 42.7029 4.46623 42.7029C4.11817 42.7029 3.83024 42.6396 3.60242 42.513C3.3746 42.3865 3.19741 42.2124 3.07084 41.991C2.94427 41.7695 2.85251 41.5163 2.79556 41.2316C2.7386 40.9468 2.7038 40.6494 2.69114 40.3393L2.82404 39.6463C2.81771 40.3994 2.78607 40.9784 2.72911 41.3834C2.67216 41.7948 2.56774 42.0796 2.41586 42.2378C2.27031 42.4023 2.05831 42.4846 1.77987 42.4846L0.479397 42.4846L0.479397 40.1115L1.4951 40.1115C1.68494 40.1115 1.82733 40.0735 1.92225 39.9975C2.02351 39.9279 2.09312 39.7697 2.13109 39.5229C2.16906 39.2824 2.18804 38.9091 2.18804 38.4028L2.18804 34.6913L0.479398 34.6913L0.479398 32.3182ZM3.77328 34.6913L3.77328 39.6558C3.77328 39.8457 3.80492 40.0039 3.86821 40.1304C3.93149 40.2633 4.05173 40.3298 4.22892 40.3298C4.39345 40.3298 4.5042 40.2633 4.56115 40.1304C4.62444 40.0039 4.65608 39.8457 4.65608 39.6558L4.65608 34.6913L3.77328 34.6913ZM0.289557 49.6648C0.289557 48.2853 0.409787 47.1747 0.650267 46.333C0.897067 45.4913 1.25778 44.8775 1.73241 44.4915C2.21336 44.1118 2.80822 43.9219 3.51698 43.9219C4.22575 43.9219 4.81745 44.1118 5.29207 44.4915C5.77302 44.8775 6.13373 45.4913 6.37421 46.333C6.62101 47.1747 6.74441 48.2853 6.74441 49.6648C6.74441 51.0444 6.62101 52.155 6.37421 52.9967C6.13373 53.8384 5.77302 54.449 5.29207 54.8287C4.81745 55.2148 4.22575 55.4078 3.51698 55.4078C2.80822 55.4078 2.21336 55.2148 1.73241 54.8287C1.25778 54.449 0.897067 53.8384 0.650267 52.9967C0.409787 52.155 0.289557 51.0444 0.289557 49.6648ZM2.09312 49.6648C2.09312 50.3167 2.13109 50.8799 2.20703 51.3545C2.2893 51.8291 2.43168 52.1962 2.63419 52.4556C2.84302 52.7151 3.13729 52.8448 3.51698 52.8448C3.89668 52.8448 4.18778 52.7151 4.39029 52.4556C4.59912 52.1962 4.74151 51.8291 4.81745 51.3545C4.89972 50.8799 4.94085 50.3167 4.94085 49.6648C4.94085 49.013 4.89972 48.4403 4.81745 47.9467C4.74151 47.4594 4.59912 47.0766 4.39029 46.7981C4.18778 46.526 3.89668 46.39 3.51698 46.39C3.13729 46.39 2.84302 46.526 2.63419 46.7981C2.43168 47.0766 2.2893 47.4594 2.20703 47.9467C2.13109 48.4403 2.09312 49.013 2.09312 49.6648Z" fill="white"/>
</g>
<defs>
<clipPath id="clip0_358_84">
<rect width="56" height="7" fill="white" transform="translate(7 0.258789) rotate(90)"/>
</clipPath>
</defs>
</svg>
