<svg width="13" height="32" viewBox="0 0 13 32" fill="none" xmlns="http://www.w3.org/2000/svg">
<g clip-path="url(#clip0_358_94)">
<path d="M3.94739 8.24095C3.93194 8.20387 3.91031 8.04165 3.8825 7.75428C3.85778 7.47 3.79598 7.06367 3.6971 6.53528C3.60131 6.00689 3.46381 5.45687 3.28459 4.88523C3.06829 4.19616 2.78713 3.5658 2.44103 2.99415C2.09183 2.4256 1.69783 1.93892 1.25913 1.53414C1.03043 1.32711 0.894529 1.19115 0.851229 1.12626C0.804829 1.06446 0.803328 1.00111 0.846628 0.936224C0.874428 0.892964 0.905328 0.869789 0.939328 0.866699C0.973228 0.866699 1.03043 0.882149 1.11083 0.913049C1.41053 1.03356 2.01613 1.29157 2.92773 1.68709C4.95472 2.55229 6.35449 3.1332 7.12699 3.42984C7.89948 3.72957 8.77704 4.02621 9.75965 4.31976C10.5692 4.56078 10.9895 4.67356 11.0204 4.65811C11.0358 4.65193 11.0065 4.62412 10.9323 4.57468C10.9292 4.57159 10.9261 4.5685 10.923 4.56541C10.8303 4.50052 10.7917 4.42945 10.8072 4.3522C10.8226 4.27804 10.8844 4.24096 10.9926 4.24096C11.0327 4.24096 11.1162 4.27186 11.2428 4.33366C11.3726 4.39855 11.507 4.4758 11.6461 4.56541C12.0107 4.7848 12.3213 4.94239 12.5777 5.03818C12.8527 5.14633 12.9902 5.24212 12.9902 5.32555C12.9902 5.40898 12.9655 5.46614 12.9161 5.49704C12.8481 5.5403 12.1946 5.38889 10.9555 5.04282C9.71948 4.69983 8.65807 4.37383 7.77125 4.06483C7.07291 3.82073 6.27106 3.50555 5.36569 3.1193C3.15635 2.18921 2.04083 1.72417 2.01923 1.72417C2.01303 1.72417 2.02543 1.74734 2.05633 1.79369C2.08723 1.84004 2.13353 1.90493 2.19533 1.98836C2.25403 2.07488 2.31893 2.16295 2.39003 2.25256C2.71143 2.68207 3.0343 3.30779 3.35875 4.12972C3.68319 4.95475 3.89486 5.62682 3.99374 6.14594C4.04627 6.41786 4.09262 6.70986 4.13279 7.02195C4.17605 7.33404 4.21004 7.60287 4.23476 7.82844C4.25948 8.0571 4.27338 8.17761 4.27647 8.18997C4.29192 8.26722 4.27647 8.32284 4.23012 8.35683C4.18686 8.39082 4.13588 8.39545 4.07717 8.37073C4.01846 8.3491 3.9752 8.30584 3.94739 8.24095ZM6.17218 10.5445C6.18145 10.628 6.15055 10.6867 6.07948 10.7207C6.00841 10.7546 5.92653 10.733 5.83383 10.6558C5.76585 10.594 5.69323 10.526 5.61598 10.4518C5.54182 10.3777 5.42749 10.2525 5.27299 10.0764C5.11849 9.90028 4.97944 9.72415 4.85584 9.54802C4.73534 9.37189 4.61792 9.16331 4.50359 8.92229C4.38926 8.68128 4.31046 8.44798 4.2672 8.22241C4.2054 7.89487 4.25484 7.60441 4.41552 7.35104C4.57929 7.09766 4.80795 6.95552 5.1015 6.92462C5.4105 6.89372 5.7334 6.91226 6.07021 6.98024C6.35449 7.03895 6.55997 7.11156 6.68666 7.19808C6.81335 7.2846 6.8458 7.37576 6.784 7.47155C6.75928 7.51481 6.70057 7.53644 6.60787 7.53644C6.51826 7.53644 6.46109 7.51635 6.43637 7.47618C6.40856 7.43292 6.20771 7.38348 5.83383 7.32786C5.5959 7.29078 5.42749 7.27224 5.32861 7.27224C5.23282 7.27533 5.12931 7.30005 5.01807 7.3464C4.80795 7.43292 4.69053 7.60132 4.66581 7.85161C4.64418 8.10499 4.68899 8.36919 4.80023 8.6442C4.91146 8.92229 5.05669 9.17722 5.23591 9.40897C5.35024 9.5542 5.48775 9.71642 5.64843 9.89564C5.8122 10.078 5.93889 10.2201 6.02849 10.322C6.1181 10.4271 6.166 10.5013 6.17218 10.5445ZM7.34946 7.72183C7.31547 7.68784 7.29848 7.64458 7.29848 7.59205C7.29848 7.53953 7.31547 7.49472 7.34946 7.45764C7.38654 7.42365 7.43135 7.40666 7.48388 7.40666C7.53641 7.40666 7.57967 7.42365 7.61366 7.45764C7.65074 7.49472 7.66928 7.53953 7.66928 7.59205C7.66928 7.64458 7.65074 7.68784 7.61366 7.72183C7.57967 7.75891 7.53641 7.77745 7.48388 7.77745C7.43135 7.77745 7.38654 7.75891 7.34946 7.72183ZM6.25097 14.4657C6.23861 14.4812 6.20308 14.4812 6.14437 14.4657C6.08875 14.4534 6.04394 14.424 6.00996 14.3777C5.98524 14.3437 5.90026 14.1567 5.75503 13.8168C5.6098 13.4769 5.51401 13.2637 5.46766 13.1772C5.33788 12.9362 5.24055 12.7879 5.17566 12.7322C5.11386 12.6766 4.96708 12.6086 4.73534 12.5283C3.68165 12.1822 3.15481 11.7728 3.15481 11.3C3.15481 11.1363 3.2027 11.0065 3.29849 10.9107C3.38192 10.8273 3.49162 10.7809 3.62757 10.7716C3.76662 10.7655 3.88559 10.7995 3.98447 10.8736C4.08335 10.9478 4.14669 10.9802 4.1745 10.9709C4.2054 10.9617 4.21622 10.9014 4.20695 10.7902C4.19768 10.6388 4.26257 10.5368 4.40162 10.4843C4.54376 10.4317 4.79868 10.4163 5.16639 10.4379C5.60826 10.4626 5.92807 10.5136 6.12583 10.5909C6.2587 10.6403 6.36067 10.6666 6.43174 10.6697C6.5059 10.6759 6.57697 10.6635 6.64495 10.6326C6.71911 10.6017 6.77164 10.5909 6.80254 10.6001C6.83653 10.6125 6.87979 10.6558 6.93232 10.7299C7.01575 10.8473 7.22586 10.9694 7.56267 11.0961C8.68434 11.5194 9.72103 11.9397 10.6727 12.3568C10.9323 12.4711 11.1131 12.5623 11.215 12.6303C11.317 12.7013 11.3865 12.7786 11.4236 12.862C11.4576 12.9454 11.4715 13.0103 11.4653 13.0567C11.4622 13.1061 11.4375 13.1664 11.3912 13.2375C11.2058 13.5279 10.767 13.5356 10.0748 13.2606C9.38577 12.9856 8.47422 12.4402 7.34019 11.6245C7.08373 11.4391 6.79018 11.2676 6.45955 11.11C6.13201 10.9524 5.94661 10.8952 5.90335 10.9385C5.90026 10.9416 5.91262 10.957 5.94043 10.9849C5.97133 11.0158 6.01459 11.0528 6.07021 11.0961C6.12583 11.1424 6.18608 11.1903 6.25097 11.2398C6.45182 11.385 6.63104 11.5673 6.78863 11.7867C6.94931 12.0092 7.0312 12.1853 7.03429 12.3151C7.03738 12.4541 6.98948 12.5669 6.8906 12.6534C6.79481 12.74 6.67276 12.7956 6.52444 12.8203C6.37612 12.845 6.22934 12.8543 6.08411 12.8481C5.93889 12.845 5.80602 12.828 5.68551 12.7971C5.71641 12.8466 5.75503 12.9176 5.80138 13.0103C5.84773 13.1061 5.8879 13.1896 5.92189 13.2606L5.96824 13.3626C6.29269 14.0084 6.38693 14.3761 6.25097 14.4657ZM10.6449 12.7276C10.4101 12.6225 9.98831 12.448 9.37959 12.2039C8.77395 11.9628 8.45877 11.8423 8.43405 11.8423C8.37225 11.8423 8.40315 11.8856 8.52675 11.9721L8.84656 12.1853C9.2977 12.4789 9.66077 12.6905 9.93578 12.8203C10.2139 12.9501 10.4564 13.0258 10.6635 13.0474C10.9385 13.0752 11.0683 13.0567 11.0528 12.9918C11.0312 12.93 10.8952 12.8419 10.6449 12.7276ZM3.75272 11.6569C3.87941 11.7558 4.06326 11.8624 4.30428 11.9767C4.5453 12.0911 4.67817 12.1359 4.70289 12.1112C4.7307 12.0833 4.638 11.9551 4.42479 11.7264C4.21158 11.5009 4.04009 11.3479 3.91031 11.2676C3.73727 11.1594 3.61522 11.1394 3.54415 11.2073C3.47926 11.263 3.48853 11.351 3.57196 11.4715C3.61522 11.5364 3.67547 11.5982 3.75272 11.6569ZM6.09802 12.468C6.25252 12.4773 6.37303 12.4773 6.45955 12.468C6.54607 12.4619 6.60323 12.4387 6.63104 12.3985C6.65885 12.3584 6.66658 12.3135 6.65422 12.2641C6.64186 12.2178 6.6125 12.1575 6.56615 12.0833C6.42401 11.8609 6.18917 11.6353 5.86164 11.4066C5.5341 11.1811 5.23591 11.0374 4.96708 10.9756C4.85893 10.954 4.78169 10.9493 4.73534 10.9617C4.68899 10.974 4.63955 11.0127 4.58702 11.0776C4.52522 11.1548 4.50204 11.2151 4.51749 11.2583C4.53294 11.3016 4.61328 11.4035 4.75851 11.5642C5.05206 11.8918 5.22664 12.088 5.28226 12.1529C5.38732 12.2765 5.48466 12.3537 5.57427 12.3846C5.66697 12.4186 5.84155 12.4464 6.09802 12.468ZM6.149 16.6534C6.16754 16.8048 6.17063 16.896 6.15827 16.9269C6.149 16.9578 6.10729 16.9732 6.03313 16.9732C5.93116 16.9732 5.85391 16.9053 5.80138 16.7693C5.75194 16.6333 5.74113 16.4619 5.76894 16.2548C5.79057 16.0972 5.84619 15.9597 5.9358 15.8423C6.02849 15.7249 6.16909 15.6075 6.35758 15.4901C6.42247 15.4499 6.45028 15.4159 6.44101 15.3881C6.43483 15.3603 6.37766 15.2907 6.26951 15.1795C6.20771 15.1146 6.08102 15.0219 5.88945 14.9014C5.70096 14.784 5.5032 14.6727 5.29617 14.5677C4.77396 14.3112 4.5144 14.1258 4.51749 14.0115C4.52058 13.9713 4.55303 13.9389 4.61483 13.9142C4.68281 13.8925 5.0227 13.9543 5.63452 14.0996C6.23398 14.251 6.60323 14.3112 6.74228 14.2803C6.85352 14.2556 6.94468 14.2741 7.01575 14.3359C7.08991 14.4008 7.11154 14.4781 7.08064 14.5677C7.05592 14.6388 6.91687 14.6743 6.66349 14.6743L6.28805 14.6743L6.5986 14.9941C6.79327 15.195 6.88597 15.3525 6.8767 15.4669C6.87052 15.5812 6.75928 15.6971 6.54298 15.8145C6.36067 15.9165 6.2417 16.0262 6.18608 16.1436C6.13046 16.2641 6.1181 16.434 6.149 16.6534ZM5.96824 20.7415L5.95897 20.7693C5.95588 20.7909 5.94507 20.8064 5.92653 20.8156C5.91108 20.828 5.88636 20.8311 5.85237 20.8249C5.8122 20.8156 5.74576 20.7631 5.65306 20.6673C5.56036 20.5746 5.43831 20.4201 5.2869 20.2038C5.13858 19.9875 4.99489 19.745 4.85584 19.4761C4.71062 19.198 4.62101 18.9663 4.58702 18.7809C4.55612 18.5986 4.5762 18.4302 4.64727 18.2757C4.76469 18.0192 4.97017 17.891 5.26372 17.891L5.4862 17.891L5.12004 17.3765C4.96245 17.1509 4.86202 16.9902 4.81877 16.8945C4.7786 16.8018 4.76315 16.6951 4.77242 16.5746C4.7786 16.4881 4.80332 16.4186 4.84657 16.3661C4.88983 16.3135 4.94391 16.2811 5.0088 16.2687C5.07369 16.2564 5.14012 16.2533 5.2081 16.2595C5.27608 16.2687 5.34561 16.2842 5.41668 16.3058C5.61444 16.3676 5.80447 16.4897 5.98678 16.672C6.17218 16.8574 6.29423 17.0505 6.35294 17.2513C6.39002 17.378 6.40702 17.48 6.40393 17.5573C6.40084 17.6345 6.37457 17.7411 6.32513 17.8771L6.20926 18.1969L6.48736 18.5538C6.7222 18.8535 6.78245 19.0343 6.66812 19.0961C6.6434 19.1084 6.6125 19.1146 6.57542 19.1146C6.51053 19.1146 6.36376 19.0003 6.1351 18.7716C5.94661 18.5739 5.74731 18.4302 5.53719 18.3406C5.33016 18.251 5.18029 18.2448 5.08759 18.322C4.94854 18.4333 4.92691 18.6341 5.0227 18.9246C5.11849 19.2181 5.3487 19.6492 5.71332 20.2177C5.77512 20.3135 5.82765 20.4016 5.87091 20.4819C5.91417 20.5654 5.94198 20.6272 5.95434 20.6673C5.96979 20.7106 5.97442 20.7353 5.96824 20.7415ZM5.90799 17.7844C5.96361 17.8184 6.00069 17.7828 6.01922 17.6778C6.04703 17.5325 6.02695 17.395 5.95897 17.2652C5.86318 17.086 5.70559 16.9145 5.4862 16.7508C5.29153 16.6055 5.17257 16.5607 5.12931 16.6164C5.12313 16.6256 5.12004 16.6395 5.12004 16.6581C5.12004 16.7075 5.24055 16.8975 5.48157 17.2282C5.57118 17.361 5.65924 17.4831 5.74576 17.5943C5.83228 17.7087 5.88636 17.772 5.90799 17.7844ZM6.149 23.0682C6.16754 23.2197 6.17063 23.3108 6.15827 23.3417C6.149 23.3726 6.10729 23.3881 6.03313 23.3881C5.93116 23.3881 5.85391 23.3201 5.80138 23.1841C5.75194 23.0482 5.74113 22.8767 5.76894 22.6696C5.79057 22.512 5.84619 22.3745 5.9358 22.2571C6.02849 22.1397 6.16909 22.0223 6.35758 21.9049C6.42247 21.8647 6.45028 21.8307 6.44101 21.8029C6.43483 21.7751 6.37766 21.7056 6.26951 21.5943C6.20771 21.5294 6.08102 21.4367 5.88945 21.3162C5.70096 21.1988 5.5032 21.0876 5.29617 20.9825C4.77396 20.726 4.5144 20.5406 4.51749 20.4263C4.52058 20.3861 4.55303 20.3537 4.61483 20.329C4.68281 20.3073 5.0227 20.3691 5.63452 20.5144C6.23398 20.6658 6.60323 20.726 6.74228 20.6951C6.85352 20.6704 6.94468 20.689 7.01575 20.7508C7.08991 20.8156 7.11154 20.8929 7.08064 20.9825C7.05592 21.0536 6.91687 21.0891 6.66349 21.0891L6.28805 21.0891L6.5986 21.4089C6.79327 21.6098 6.88597 21.7674 6.8767 21.8817C6.87052 21.996 6.75928 22.1119 6.54298 22.2293C6.36067 22.3313 6.2417 22.441 6.18608 22.5584C6.13046 22.6789 6.1181 22.8489 6.149 23.0682ZM6.17218 26.6743C6.18145 26.7577 6.15055 26.8164 6.07948 26.8504C6.00841 26.8844 5.92653 26.8627 5.83383 26.7855C5.76585 26.7237 5.69323 26.6557 5.61598 26.5816C5.54182 26.5074 5.42749 26.3823 5.27299 26.2061C5.11849 26.03 4.97944 25.8539 4.85584 25.6777C4.73534 25.5016 4.61792 25.293 4.50359 25.052C4.38926 24.811 4.31046 24.5777 4.2672 24.3521C4.2054 24.0246 4.25484 23.7341 4.41552 23.4808C4.57929 23.2274 4.80795 23.0852 5.1015 23.0543C5.4105 23.0234 5.7334 23.042 6.07021 23.11C6.35449 23.1687 6.55997 23.2413 6.68666 23.3278C6.81335 23.4143 6.8458 23.5055 6.784 23.6013C6.75928 23.6445 6.70057 23.6662 6.60787 23.6662C6.51826 23.6662 6.46109 23.6461 6.43637 23.6059C6.40856 23.5626 6.20771 23.5132 5.83383 23.4576C5.5959 23.4205 5.42749 23.402 5.32861 23.402C5.23282 23.4051 5.12931 23.4298 5.01807 23.4761C4.80795 23.5626 4.69053 23.731 4.66581 23.9813C4.64418 24.2347 4.68899 24.4989 4.80023 24.7739C4.91146 25.052 5.05669 25.3069 5.23591 25.5387C5.35024 25.6839 5.48775 25.8461 5.64843 26.0254C5.8122 26.2077 5.93889 26.3498 6.02849 26.4518C6.1181 26.5568 6.166 26.631 6.17218 26.6743ZM7.34946 23.8516C7.31547 23.8176 7.29848 23.7743 7.29848 23.7218C7.29848 23.6692 7.31547 23.6244 7.34946 23.5874C7.38654 23.5534 7.43135 23.5364 7.48388 23.5364C7.53641 23.5364 7.57967 23.5534 7.61366 23.5874C7.65074 23.6244 7.66928 23.6692 7.66928 23.7218C7.66928 23.7743 7.65074 23.8176 7.61366 23.8516C7.57967 23.8886 7.53641 23.9072 7.48388 23.9072C7.43135 23.9072 7.38654 23.8886 7.34946 23.8516ZM5.96824 30.4749L5.95897 30.5028C5.95588 30.5244 5.94507 30.5398 5.92653 30.5491C5.91108 30.5615 5.88636 30.5646 5.85237 30.5584C5.8122 30.5491 5.74576 30.4966 5.65306 30.4008C5.56036 30.3081 5.43831 30.1536 5.2869 29.9373C5.13858 29.721 4.99489 29.4784 4.85584 29.2096C4.71062 28.9315 4.62101 28.6997 4.58702 28.5143C4.55612 28.332 4.5762 28.1636 4.64727 28.0091C4.76469 27.7527 4.97017 27.6244 5.26372 27.6244L5.4862 27.6244L5.12004 27.1099C4.96245 26.8844 4.86202 26.7237 4.81877 26.6279C4.7786 26.5352 4.76315 26.4286 4.77242 26.3081C4.7786 26.2216 4.80332 26.1521 4.84657 26.0995C4.88983 26.047 4.94391 26.0145 5.0088 26.0022C5.07369 25.9898 5.14012 25.9867 5.2081 25.9929C5.27608 26.0022 5.34561 26.0176 5.41668 26.0393C5.61444 26.1011 5.80447 26.2231 5.98678 26.4054C6.17218 26.5908 6.29423 26.784 6.35294 26.9848C6.39002 27.1115 6.40702 27.2135 6.40393 27.2907C6.40084 27.368 6.37457 27.4746 6.32513 27.6105L6.20926 27.9303L6.48736 28.2872C6.7222 28.587 6.78245 28.7677 6.66812 28.8295C6.6434 28.8419 6.6125 28.8481 6.57542 28.8481C6.51053 28.8481 6.36376 28.7337 6.1351 28.5051C5.94661 28.3073 5.74731 28.1636 5.53719 28.074C5.33016 27.9844 5.18029 27.9782 5.08759 28.0555C4.94854 28.1667 4.92691 28.3676 5.0227 28.658C5.11849 28.9516 5.3487 29.3826 5.71332 29.9512C5.77512 30.047 5.82765 30.135 5.87091 30.2154C5.91417 30.2988 5.94198 30.3606 5.95434 30.4008C5.96979 30.444 5.97442 30.4688 5.96824 30.4749ZM5.90799 27.5178C5.96361 27.5518 6.00069 27.5163 6.01922 27.4112C6.04703 27.266 6.02695 27.1285 5.95897 26.9987C5.86318 26.8195 5.70559 26.648 5.4862 26.4842C5.29153 26.339 5.17257 26.2942 5.12931 26.3498C5.12313 26.3591 5.12004 26.373 5.12004 26.3915C5.12004 26.441 5.24055 26.631 5.48157 26.9616C5.57118 27.0945 5.65924 27.2166 5.74576 27.3278C5.83228 27.4421 5.88636 27.5055 5.90799 27.5178Z" fill="white"/>
</g>
<defs>
<clipPath id="clip0_358_94">
<rect width="31" height="13" fill="white" transform="translate(13 0.258789) rotate(90)"/>
</clipPath>
</defs>
</svg>
