<svg width="8" height="145" viewBox="0 0 8 145" fill="none" xmlns="http://www.w3.org/2000/svg">
<g clip-path="url(#clip0_358_92)">
<path d="M6.81601 3.43317L2.54441 3.43317L2.54441 8.96726L0.740847 8.96726L0.740848 1.06006L6.81601 1.06006L6.81601 3.43317ZM1.66162 11.5716L3.08548 11.5716L3.08548 18.0645L1.66162 18.0645L1.66162 11.5716ZM0.740847 9.4453L6.81601 13.5176L6.81601 16.1565L0.740847 20.2667L0.740847 17.6563L6.18002 14.1346L6.18002 15.549L0.740847 12.0557L0.740847 9.4453ZM2.60137 30.5485L2.09827 29.6657L6.81601 29.6657L6.81601 32.0388L0.740846 32.0388L0.740846 29.6657L4.87956 22.5179L5.39215 23.4007L0.740847 23.4007L0.740847 21.0276L6.81601 21.0276L6.81601 23.4007L2.60137 30.5485ZM6.81601 40.2005C6.81601 41.0548 6.73375 41.7604 6.56921 42.3173C6.40467 42.8742 6.18002 43.3108 5.89525 43.6272C5.61047 43.9436 5.28457 44.1651 4.91752 44.2917C4.55681 44.4246 4.17711 44.491 3.77843 44.491C3.37975 44.491 2.99689 44.4183 2.62985 44.2727C2.26913 44.1272 1.94639 43.8867 1.66162 43.5513C1.37684 43.2222 1.15219 42.7824 0.987645 42.2318C0.823115 41.6876 0.740846 41.0105 0.740846 40.2005L0.740846 33.3659L6.81601 33.3659L6.81601 40.2005ZM2.63934 35.739L2.63934 40.1055C2.63934 40.4599 2.66149 40.7605 2.70579 41.0073C2.75641 41.2541 2.82919 41.4503 2.92411 41.5958C3.01904 41.7477 3.13611 41.8553 3.27533 41.9186C3.42088 41.9882 3.58858 42.023 3.77843 42.023C3.96828 42.023 4.13282 41.9882 4.27204 41.9186C4.41759 41.8553 4.53783 41.7477 4.63275 41.5958C4.72768 41.4503 4.79729 41.2541 4.84159 41.0073C4.89221 40.7605 4.91752 40.4599 4.91752 40.1055L4.91752 35.739L2.63934 35.739ZM6.81601 45.8652L6.81601 48.2383L0.740846 48.2383L0.740846 45.8652L6.81601 45.8652ZM2.60136 59.2298L2.09827 58.347L6.816 58.347L6.816 60.7201L0.740845 60.7201L0.740845 58.347L4.87956 51.1992L5.39215 52.082L0.740845 52.082L0.740845 49.7088L6.81601 49.7088L6.81601 52.082L2.60136 59.2298ZM0.550995 67.5813C0.550995 66.7586 0.601624 66.0023 0.702874 65.3126C0.797804 64.6291 0.962335 64.0342 1.19648 63.528C1.43695 63.028 1.76286 62.6389 2.17421 62.3604C2.58555 62.0883 3.10446 61.9522 3.73096 61.9522C4.35746 61.9522 4.87955 62.0915 5.29721 62.3699C5.72121 62.6483 6.05661 63.047 6.30341 63.566C6.55654 64.0912 6.7369 64.7145 6.84448 65.436C6.95206 66.1637 7.00586 66.9737 7.00586 67.866C7.00586 69.0368 6.89827 70.0176 6.68311 70.8087C6.46795 71.606 6.16102 72.2136 5.76234 72.6312C5.36999 73.0489 4.90169 73.2736 4.35746 73.3052L4.35746 70.8372C4.49668 70.7612 4.62958 70.622 4.75614 70.4195C4.88904 70.217 4.99662 69.9132 5.07889 69.5082C5.16115 69.1032 5.20229 68.5558 5.20229 67.866C5.20229 67.056 5.15166 66.3979 5.05041 65.8916C4.95548 65.3853 4.80044 65.0151 4.58528 64.781C4.37012 64.5468 4.08534 64.4298 3.73096 64.4298C3.42087 64.4298 3.16458 64.55 2.96207 64.7905C2.75957 65.031 2.60769 65.417 2.50643 65.9486C2.40518 66.4801 2.35456 67.1826 2.35456 68.0559C2.35456 68.6697 2.37987 69.2013 2.4305 69.6506C2.48745 70.1062 2.57288 70.5176 2.68679 70.8846C2.8007 71.258 2.94309 71.6282 3.11395 71.9952L2.83867 72.2231C2.09826 71.8307 1.53188 71.2485 1.13952 70.4764C0.747174 69.7044 0.550995 68.7393 0.550995 67.5813ZM0.740845 71.5776C0.930695 71.5776 1.14585 71.6029 1.38633 71.6535C1.6268 71.7041 1.87677 71.7674 2.13623 71.8434C2.40202 71.9256 2.65199 72.0047 2.88613 72.0807L2.88613 68.3786L3.88284 68.3786L3.88284 73.4381L0.740844 73.4381L0.740845 71.5776ZM2.30709 79.9064L3.96827 79.9064L3.96827 84.6431C3.96827 84.8329 3.99675 84.9912 4.0537 85.1177C4.11699 85.2506 4.24672 85.3171 4.44289 85.3171C4.6454 85.3171 4.77513 85.2506 4.83208 85.1177C4.88904 84.9912 4.91751 84.8329 4.91751 84.6431L4.91751 80.0583L0.740844 80.0583L0.740844 77.6851L6.816 77.6851L6.816 84.2729C6.816 84.7475 6.7812 85.1905 6.71159 85.6018C6.6483 86.0195 6.53123 86.3834 6.36037 86.6935C6.1895 87.0036 5.94903 87.2472 5.63894 87.4244C5.32885 87.6016 4.93017 87.6902 4.44289 87.6902C3.95561 87.6902 3.56959 87.6016 3.28481 87.4244C3.00004 87.2472 2.78804 87.0036 2.64882 86.6935C2.5096 86.3834 2.41784 86.0195 2.37354 85.6018C2.32924 85.1905 2.30709 84.7475 2.30709 84.2729L2.30709 79.9064ZM1.66161 89.3837L3.08547 89.3837L3.08547 95.8765L1.66161 95.8765L1.66161 89.3837ZM0.740844 87.2574L6.816 91.3296L6.816 93.9685L0.740843 98.0788L0.740843 95.4683L6.18001 91.9466L6.18001 93.361L0.740844 89.8678L0.740844 87.2574ZM0.550993 103.808C0.550993 102.986 0.601623 102.229 0.702873 101.54C0.797803 100.856 0.962333 100.261 1.19648 99.755C1.43695 99.2551 1.76286 98.8659 2.1742 98.5874C2.58554 98.3153 3.10446 98.1792 3.73096 98.1792C4.35746 98.1792 4.87955 98.3185 5.29721 98.5969C5.72121 98.8754 6.05661 99.274 6.30341 99.793C6.55654 100.318 6.7369 100.942 6.84448 101.663C6.95206 102.391 7.00585 103.201 7.00585 104.093C7.00585 105.264 6.89827 106.245 6.68311 107.036C6.46795 107.833 6.16102 108.441 5.76234 108.858C5.36999 109.276 4.90169 109.501 4.35746 109.532L4.35746 107.064C4.49668 106.988 4.62958 106.849 4.75614 106.647C4.88904 106.444 4.99662 106.14 5.07889 105.735C5.16115 105.33 5.20229 104.783 5.20229 104.093C5.20229 103.283 5.15166 102.625 5.05041 102.119C4.95548 101.612 4.80044 101.242 4.58528 101.008C4.37012 100.774 4.08534 100.657 3.73096 100.657C3.42087 100.657 3.16458 100.777 2.96207 101.018C2.75957 101.258 2.60769 101.644 2.50643 102.176C2.40518 102.707 2.35456 103.41 2.35456 104.283C2.35456 104.897 2.37987 105.428 2.4305 105.878C2.48745 106.333 2.57288 106.745 2.68679 107.112C2.8007 107.485 2.94309 107.855 3.11395 108.222L2.83867 108.45C2.09826 108.058 1.53188 107.476 1.13952 106.704C0.747173 105.932 0.550993 104.966 0.550993 103.808ZM0.740843 107.805C0.930693 107.805 1.14585 107.83 1.38633 107.881C1.6268 107.931 1.87677 107.995 2.13623 108.07C2.40202 108.153 2.65199 108.232 2.88613 108.308L2.88613 104.606L3.88284 104.606L3.88284 109.665L0.740843 109.665L0.740843 107.805ZM3.3038 113.366L2.5444 113.366L2.5444 120.58L0.740842 120.58L0.740843 110.993L6.816 110.993L6.816 120.561L5.01244 120.561L5.01244 113.366L4.25304 113.366L4.25304 119.251L3.3038 119.251L3.3038 113.366ZM3.58857 124.322L5.39214 124.322L5.39214 128.442L0.740842 128.442L0.740842 126.164L3.58857 126.164L3.58857 124.322ZM0.598452 134.188C0.598452 133.181 0.680722 132.343 0.845262 131.672C1.00979 131.008 1.27242 130.508 1.63313 130.172C1.99384 129.843 2.46847 129.679 3.057 129.679C3.64553 129.679 4.12015 129.843 4.48086 130.172C4.8479 130.508 5.11369 131.008 5.27823 131.672C5.44909 132.343 5.53452 133.181 5.53452 134.188C5.53452 135.187 5.44909 136.016 5.27823 136.675C5.11369 137.339 4.8479 137.836 4.48086 138.165C4.12015 138.494 3.64553 138.659 3.057 138.659C2.46847 138.659 1.99384 138.494 1.63313 138.165C1.27242 137.836 1.00979 137.339 0.845261 136.675C0.680721 136.016 0.598451 135.187 0.598452 134.188ZM2.02232 134.188C2.02232 134.656 2.06029 135.048 2.13623 135.365C2.2185 135.681 2.33557 135.922 2.48745 136.086C2.63933 136.251 2.82918 136.333 3.057 136.333C3.28481 136.333 3.47466 136.251 3.62654 136.086C3.78475 135.928 3.90499 135.691 3.98726 135.374C4.06952 135.058 4.11066 134.665 4.11066 134.197C4.11066 133.722 4.06952 133.321 3.98726 132.992C3.91132 132.669 3.79424 132.422 3.63604 132.251C3.47783 132.087 3.28481 132.004 3.057 132.004C2.82918 132.004 2.63933 132.087 2.48745 132.251C2.33557 132.416 2.2185 132.659 2.13623 132.982C2.06029 133.311 2.02232 133.713 2.02232 134.188ZM3.58857 139.469L5.39214 139.469L5.39214 143.589L0.740841 143.589L0.740841 141.311L3.58857 141.311L3.58857 139.469Z" fill="white"/>
</g>
<defs>
<clipPath id="clip0_358_92">
<rect width="144" height="8" fill="white" transform="translate(8 0.258789) rotate(90)"/>
</clipPath>
</defs>
</svg>
